<svg width="40" height="36" viewBox="0 0 40 36" fill="none" xmlns="http://www.w3.org/2000/svg">
<path d="M35.725 10.6667V25.7C35.725 28.7803 35.725 30.3204 35.1201 31.497C34.588 32.5318 33.7389 33.3732 32.6947 33.9005C31.5074 34.5 29.9533 34.5 26.845 34.5H13.155C10.0467 34.5 8.49256 34.5 7.30535 33.9005C6.26105 33.3732 5.41201 32.5318 4.87991 31.497C4.275 30.3204 4.275 28.7803 4.275 25.7V10.6667M4.46 1.5H35.54C36.5761 1.5 37.0941 1.5 37.4899 1.69982C37.838 1.87559 38.121 2.15605 38.2984 2.50102C38.5 2.89319 38.5 3.40657 38.5 4.43333V7.73333C38.5 8.7601 38.5 9.27348 38.2984 9.66565C38.121 10.0106 37.838 10.2911 37.4899 10.4668C37.0941 10.6667 36.5761 10.6667 35.54 10.6667H4.46C3.4239 10.6667 2.90585 10.6667 2.51012 10.4668C2.16202 10.2911 1.879 10.0106 1.70164 9.66565C1.5 9.27348 1.5 8.7601 1.5 7.73333V4.43333C1.5 3.40657 1.5 2.89319 1.70164 2.50102C1.879 2.15605 2.16202 1.87559 2.51012 1.69982C2.90585 1.5 3.4239 1.5 4.46 1.5ZM15.56 17.0833H24.44C25.4761 17.0833 25.9941 17.0833 26.3899 17.2832C26.738 17.4589 27.021 17.7394 27.1984 18.0844C27.4 18.4765 27.4 18.9899 27.4 20.0167V21.4833C27.4 22.5101 27.4 23.0235 27.1984 23.4157C27.021 23.7606 26.738 24.0411 26.3899 24.2168C25.9941 24.4167 25.4761 24.4167 24.44 24.4167H15.56C14.5239 24.4167 14.0059 24.4167 13.6101 24.2168C13.262 24.0411 12.979 23.7606 12.8016 23.4157C12.6 23.0235 12.6 22.5101 12.6 21.4833V20.0167C12.6 18.9899 12.6 18.4765 12.8016 18.0844C12.979 17.7394 13.262 17.4589 13.6101 17.2832C14.0059 17.0833 14.5239 17.0833 15.56 17.0833Z" stroke="#0F0F0F" stroke-width="3" stroke-linecap="round" stroke-linejoin="round"/>
</svg>
