<svg width="39" height="39" viewBox="0 0 39 39" fill="none" xmlns="http://www.w3.org/2000/svg">
<path d="M13.5002 37.5V23.2792C13.5002 22.2029 13.5002 21.6648 13.7182 21.2537C13.9099 20.8921 14.2159 20.5981 14.5922 20.4139C15.02 20.2044 15.5801 20.2044 16.7002 20.2044H22.3002C23.4203 20.2044 23.9803 20.2044 24.4082 20.4139C24.7845 20.5981 25.0904 20.8921 25.2822 21.2537C25.5002 21.6648 25.5002 22.2029 25.5002 23.2792V37.5M17.5356 2.45539L3.97096 12.5928C3.06422 13.2704 2.61085 13.6092 2.28423 14.0335C1.99491 14.4094 1.77938 14.8328 1.64823 15.283C1.50018 15.7913 1.50018 16.3431 1.50018 17.4469V31.3505C1.50018 33.503 1.50018 34.5793 1.93615 35.4014C2.31964 36.1246 2.93157 36.7126 3.68421 37.0811C4.53986 37.5 5.65997 37.5 7.90018 37.5H31.1002C33.3404 37.5 34.4605 37.5 35.3161 37.0811C36.0688 36.7126 36.6807 36.1246 37.0642 35.4014C37.5002 34.5793 37.5002 33.503 37.5002 31.3505V17.4469C37.5002 16.3431 37.5002 15.7913 37.3521 15.283C37.221 14.8328 37.0054 14.4094 36.7161 14.0335C36.3895 13.6092 35.9361 13.2704 35.0294 12.5928L21.4648 2.45539C20.7621 1.93028 20.4108 1.66772 20.0229 1.56679C19.6806 1.47774 19.3198 1.47774 18.9775 1.56679C18.5895 1.66772 18.2382 1.93028 17.5356 2.45539Z" stroke="#0F0F0F" stroke-width="3" stroke-linecap="round" stroke-linejoin="round"/>
</svg>
