<svg width="50" height="50" viewBox="0 0 50 50" fill="none" xmlns="http://www.w3.org/2000/svg">
<path d="M29.7861 11.3936L30.2686 12.2793L31.2373 11.9941L40.8301 9.16895L38.0059 18.7627L37.7207 19.7314L38.6064 20.2139L47.3867 25L38.6064 29.7861L37.7207 30.2686L38.0059 31.2373L40.8301 40.8301L31.2373 38.0059L30.2686 37.7207L29.7861 38.6064L25 47.3867L20.2139 38.6064L19.7314 37.7207L18.7627 38.0059L9.16895 40.8301L11.9941 31.2373L12.2793 30.2686L11.3936 29.7861L2.6123 25L11.3936 20.2139L12.2793 19.7314L11.9941 18.7627L9.16895 9.16895L18.7627 11.9941L19.7314 12.2793L20.2139 11.3936L25 2.6123L29.7861 11.3936Z" fill="#FF9BBE" stroke="black" stroke-width="2.5"/>
</svg>
