<svg width="75" height="75" viewBox="0 0 75 75" fill="none" xmlns="http://www.w3.org/2000/svg">
<path d="M45.2285 16.791L45.7109 17.6768L46.6787 17.3926L62.1689 12.8301L57.6074 28.3213L57.3232 29.2891L58.209 29.7715L72.3867 37.5L58.209 45.2285L57.3232 45.7109L57.6074 46.6787L62.1689 62.1689L46.6787 57.6074L45.7109 57.3232L45.2285 58.209L37.5 72.3867L29.7715 58.209L29.2891 57.3232L28.3213 57.6074L12.8301 62.1689L17.3926 46.6787L17.6768 45.7109L16.791 45.2285L2.6123 37.5L16.791 29.7715L17.6768 29.2891L17.3926 28.3213L12.8301 12.8301L28.3213 17.3926L29.2891 17.6768L29.7715 16.791L37.5 2.6123L45.2285 16.791Z" fill="#FFF0A3" stroke="black" stroke-width="2.5"/>
</svg>
